<svg width="55" height="54" viewBox="0 0 55 54" fill="none" xmlns="http://www.w3.org/2000/svg">
<path d="M32 38C32 46.2843 25.0604 53 16.5 53C7.93959 53 1 46.2843 1 38C1 29.7157 7.93959 23 16.5 23C25.0604 23 32 29.7157 32 38Z" fill="#3B9CFC" stroke="black" stroke-width="2" stroke-linecap="round" stroke-linejoin="round"/>
<path d="M44 27C44 35.2843 37.0604 42 28.5 42C19.9396 42 13 35.2843 13 27C13 18.7157 19.9396 12 28.5 12C37.0604 12 44 18.7157 44 27Z" fill="#3B9CFC" stroke="black" stroke-width="2" stroke-linecap="round" stroke-linejoin="round"/>
<path d="M54 16C54 24.2843 47.0604 31 38.5 31C29.9396 31 23 24.2843 23 16C23 7.71572 29.9396 1 38.5 1C47.0604 1 54 7.71572 54 16Z" fill="#A1A3AB" stroke="black" stroke-width="2" stroke-linecap="round" stroke-linejoin="round"/>
<rect x="32" y="9" width="13" height="13" rx="2" fill="black"/>
</svg>
